<?xml version="1.0" standalone="no"?>
<!DOCTYPE svg PUBLIC "-//W3C//DTD SVG 1.0//EN" "http://www.w3.org/TR/2001/REC-SVG-20010904/DTD/svg10.dtd">
<svg xmlns="http://www.w3.org/2000/svg" xmlns:xlink="http://www.w3.org/1999/xlink" id="body_1" width="133" height="51">

<g transform="matrix(0.30645162 0 0 0.30645162 -0 0.06451588)">
	<g>
        <path d="M0 148.27344C 0 159.6914 6.597656 166 17.464844 166C 28.332031 166 34.929688 159.6914 34.929688 148.27344L34.929688 148.27344L34.929688 98.546875L23.535156 98.546875L23.535156 148.72266C 23.535156 153.60547 21.585938 156.01172 17.464844 156.01172C 13.34375 156.01172 11.394531 153.60547 11.394531 148.72266L11.394531 148.72266L11.394531 98.546875L0 98.546875L0 148.27344zM56.21875 165.02344L56.21875 123.484375L56.367188 123.484375L70.91016 165.02344L80.80469 165.02344L80.80469 98.546875L70.53516 98.546875L70.53516 136.55469L70.38281 136.55469L56.441406 98.546875L45.94922 98.546875L45.94922 165.02344L56.21875 165.02344zM103.21484 114.921875C 103.21484 109.96484 104.71484 107.5625 109.28516 107.5625C 113.859375 107.5625 115.359375 109.96484 115.359375 114.921875L115.359375 114.921875L115.359375 148.64844C 115.359375 153.60547 113.859375 156.01172 109.28516 156.01172C 104.71484 156.01172 103.21484 153.60547 103.21484 148.64844zM91.82031 148.875C 91.82031 158.26172 97.36719 165.92578 109.28516 165.92578C 121.20703 165.92578 126.75391 158.26172 126.75391 148.875L126.75391 148.875L126.75391 114.62109C 126.75391 105.234375 121.28125 97.57031 109.28516 97.57031C 97.36719 97.57031 91.82031 105.234375 91.82031 114.62109zM387.15234 120.70703L387.15234 115.82422C 387.15234 105.91016 381.60547 97.57031 370.28516 97.57031C 358.3672 97.57031 352.8203 105.234375 352.8203 114.62109L352.8203 114.62109L352.8203 148.875C 352.8203 158.26172 358.3672 165.92578 370.28516 165.92578C 381.6797 165.92578 387.15234 158.26172 387.15234 148.875L387.15234 148.875L387.15234 141.21094L375.7578 141.21094L375.7578 149.25C 375.7578 153.53125 374.41016 155.9336 370.28516 155.9336C 365.71484 155.9336 364.21484 153.53125 364.21484 148.57422L364.21484 148.57422L364.21484 114.921875C 364.21484 109.96484 365.71484 107.5625 370.28516 107.5625C 373.21094 107.5625 375.7578 109.96484 375.7578 115.59766L375.7578 115.59766L375.7578 120.78125L387.15234 120.78125zM207.17969 98.546875L207.17969 127.54297L195.11328 127.54297L195.11328 98.546875L183.71875 98.546875L183.71875 165.02344L195.11328 165.02344L195.11328 138.58203L207.17969 138.58203L207.17969 165.02344L218.57422 165.02344L218.57422 98.546875zM256.80078 127.69141L251.55469 98.546875L237.38672 98.546875L225.17188 164.94922L236.1875 164.94922L238.8125 148.125C 251.70312 147.59766 258.44922 136.92969 256.80078 127.69141zM244.35938 111.84375L244.58594 111.84375L246.90625 127.16797C 247.73047 132.5 244.88281 137.00781 240.3125 138.4336z" stroke="none" fill="#003B4C" fill-rule="nonzero" />
        <path d="M250.05469 147.44531L252.7539 165.02344L263.77344 165.02344L261.97266 155.10938C 261 149.92578 257.85156 147.44531 252.53125 147.44531L252.53125 147.44531L250.05469 147.44531zM281.76172 165.02344L281.76172 137.75781L286.71094 137.75781C 314.7422 137.75781 314.7422 98.546875 286.71094 98.546875L286.71094 98.546875L270.3711 98.546875L270.3711 165.02344zM281.76172 107.9375L286.1836 107.9375C 299.82812 107.9375 299.82812 128.36719 286.1836 128.36719L286.1836 128.36719L281.76172 128.36719z" stroke="none" fill="#003B4C" fill-rule="nonzero" />
        <path d="M345.17578 165.02344L345.17578 155.03516L324.78906 155.03516L324.78906 135.5039L339.48047 135.5039L339.48047 125.58984L324.78906 125.58984L324.78906 108.46484L343.90234 108.46484L343.90234 98.546875L313.39453 98.546875L313.39453 165.02344L345.17578 165.02344zM172.10156 120.70703L172.10156 115.82422C 172.10156 105.91016 166.6289 97.57031 155.23438 97.57031C 143.3164 97.57031 137.76953 105.234375 137.76953 114.62109L137.76953 114.62109L137.76953 148.875C 137.76953 158.26172 143.3164 165.92578 155.23438 165.92578C 166.6289 165.92578 172.10156 158.26172 172.10156 148.875L172.10156 148.875L172.10156 141.21094L160.70703 141.21094L160.70703 149.25C 160.70703 153.53125 159.35938 155.9336 155.16016 155.9336C 150.58984 155.9336 149.08984 153.53125 149.08984 148.57422L149.08984 148.57422L149.08984 114.921875C 149.08984 109.96484 150.58984 107.5625 155.16016 107.5625C 158.08203 107.5625 160.70703 109.96484 160.70703 115.59766L160.70703 115.59766L160.70703 120.78125L172.10156 120.78125z" stroke="none" fill="#003B4C" fill-rule="nonzero" />
        <path d="M410.08984 114.921875C 410.08984 112.51953 410.38672 109.515625 412.71094 108.23828C 414.73438 107.1875 418.10938 107.1875 419.98438 108.53906C 422.53125 110.33984 422.15625 114.09766 422.15625 116.875L422.15625 116.875L422.15625 148.57422C 422.15625 150.52734 422.08203 152.78125 420.73438 154.35938C 419.16016 156.23438 416.01172 156.38672 413.76172 155.78516C 410.01562 154.8086 410.01562 150.7539 410.01562 147.52344L410.01562 147.52344L410.01562 115.44922C 410.08984 115.22266 410.08984 115.07422 410.08984 114.921875zM398.6953 148.875C 398.6953 152.48047 399.51953 156.23438 401.6172 159.23828C 403.71875 162.32031 407.01562 164.34766 410.61328 165.25C 418.33594 167.20312 427.85547 165.17188 431.67578 157.58594C 433.77344 153.53125 433.625 149.09766 433.625 144.74219L433.625 144.74219L433.625 114.84766C 433.625 108.23828 430.77734 101.92969 424.48047 99.14844C 420.4336 97.421875 415.71094 97.19531 411.4375 98.02344C 407.76562 98.77344 404.3164 100.65234 402.0703 103.73047C 399.89453 106.66016 398.92188 110.265625 398.76953 113.87109L398.76953 113.87109L398.76953 148.04688C 398.6953 148.34766 398.6953 148.64844 398.6953 148.875zM422.23047 92.765625L410.08984 95.99609L410.08984 89.16016L422.23047 85.85547L422.23047 92.765625" stroke="none" fill="#003B4C" fill-rule="nonzero" />
        <path d="M178.9961 6.683594C 154.71094 15.171875 129.82422 44.242188 134.77344 75.11328L134.77344 75.11328L142.79297 75.11328C 141.89453 71.88281 141.51953 68.42969 141.51953 64.97266C 141.59375 39.132812 156.96094 16.824219 178.9961 6.683594zM259.72656 25.539062C 257.92578 25.464844 256.1289 25.464844 254.2539 25.539062C 251.92969 22.683594 249.38281 19.980469 246.6836 17.5C 249.98047 9.164062 249.38281 0.300781 235.89062 0C 245.85938 1.277344 244.58594 10.816406 239.48828 19.828125C 223.51953 48.222656 183.57031 63.171875 152.76172 63.847656C 183.86719 65.34766 226.66797 51.753906 243.75781 23.359375C 244.35938 22.308594 244.95703 21.257812 245.48438 20.207031C 254.02734 26.742188 260.85156 35.226562 265.34766 45.066406C 262.94922 38.609375 259.57422 32.597656 255.52734 27.191406C 256.72656 27.265625 257.92578 27.417969 259.05078 27.566406C 274.4922 30.570312 272.54297 44.16797 263.92188 53.628906C 257.25 60.91797 246.3086 68.65234 232.89062 75.03906L232.89062 75.03906L254.85156 75.03906C 261.375 70.00391 266.6953 64.671875 270.59375 59.414062C 281.91406 44.089844 281.76172 26.816406 259.72656 25.539062z" stroke="none" fill="#003B4C" fill-rule="nonzero" />
	</g>
</g>
</svg>